<svg width="74" height="74" viewBox="0 0 74 74" fill="none" xmlns="http://www.w3.org/2000/svg">
<path d="M39.9143 65.5429L72.9428 45.2242L57.4 35.5487L39.9143 45.2242V48.1269L51.5714 40.3864L59.3428 45.2242L39.9143 55.8673V65.5429Z" fill="url(#paint0_linear_840_17857)"/>
<path fill-rule="evenodd" clip-rule="evenodd" d="M16.6 33.6136L1.05713 43.2891L39.9143 65.5429V47.1593L16.6 33.6136ZM22.4286 37.4838L14.6571 43.2891L32.1428 52.9647V43.2891L22.4286 37.4838Z" fill="url(#paint1_linear_840_17857)"/>
<path d="M39.9143 16.1976L19.5143 27.8082L39.9143 41.354L60.3143 27.8082L47.8752 20.7286L54.303 16.8873L72.9428 27.8082L39.9143 49.0944L5.91427 27.8082L39.9143 8.45715L46.7087 12.4379L39.9143 16.1976Z" fill="#6972FF"/>
<path d="M47.8752 20.7286L39.9143 25.8731V34.5811L54.7647 24.6497L47.8752 20.7286Z" fill="#6972FF"/>
<defs>
<linearGradient id="paint0_linear_840_17857" x1="1.05713" y1="37" x2="72.9428" y2="37" gradientUnits="userSpaceOnUse">
<stop stop-color="#CED2FF"/>
<stop offset="1" stop-color="#7580FE"/>
</linearGradient>
<linearGradient id="paint1_linear_840_17857" x1="1.05713" y1="37" x2="72.9428" y2="37" gradientUnits="userSpaceOnUse">
<stop stop-color="#D2D7FF"/>
<stop offset="1" stop-color="#6B74FF"/>
</linearGradient>
</defs>
</svg>
